<?xml version="1.0" encoding="UTF-8"?>
<svg id="Layer_1" data-name="Layer 1" xmlns="http://www.w3.org/2000/svg" viewBox="0 0 264.4 301.86">
  <defs>
    <style>
      .cls-1 {
        fill: #fff;
      }

      .cls-2 {
        fill: none;
        stroke: #fff;
        stroke-miterlimit: 10;
        stroke-width: 5px;
      }
    </style>
  </defs>
  <path class="cls-1" d="M261.89,102.25c-2-5.34-37.41,2.76-85.83,18.81L132.28,0l-43.79,121.06-8.55,23.64-5.33,14.72C30.38,178.3.74,194.48,2.67,199.62c1.64,4.39,25.9-.32,61.41-11.06l-40.98,113.3,108.13-136.1.48-.6.57-.72.57.72.48.6,108.13,136.1-40.98-113.3-10.55-29.14-5.33-14.72c47.17-19.84,79.29-37.12,77.28-42.46ZM132.28,159.73c-4.86,0-8.79-3.94-8.79-8.79s3.94-8.8,8.79-8.8,8.79,3.94,8.79,8.8-3.93,8.79-8.79,8.79Z"/>
  <path class="cls-2" d="M88.42,121.36l-8.55,23.64C32.7,125.17.58,107.89,2.59,102.55c2-5.34,37.41,2.76,85.83,18.81Z"/>
  <path class="cls-2" d="M261.81,199.93c-1.64,4.39-25.9-.32-61.4-11.06l-10.55-29.14c44.24,18.88,73.88,35.06,71.95,40.2Z"/>
</svg>